<svg xmlns="http://www.w3.org/2000/svg" xmlns:xlink="http://www.w3.org/1999/xlink" version="1.1" x="0px" y="0px"
     viewBox="0 10 100 80" enable-background="new 0 0 100 100" xml:space="preserve">
  <path d="M86.195,38.485l3.726,0.227l-0.287-3.721c-0.517-6.699-4.663-15.896-14.646-19.769c-9.958-3.864-19.329-1.922-27.495,5.689
  c-0.187-0.168-0.373-0.338-0.557-0.509c-4.893-4.557-11.137-7.066-17.583-7.066c-3.839,0-7.531,0.873-10.976,2.594
  C8.299,20.967,3.273,31.91,5.575,43.808c1.05,5.432,3.592,10.408,7.999,15.659c4.542,5.414,10.004,9.735,15.286,13.915
  c4.725,3.737,9.434,7.495,14.143,11.253l1.014,0.81c1.317,1.052,2.598,1.272,3.44,1.272c1.317,0,2.566-0.496,3.713-1.475
   c2.428-2.072,4.611-3.902,6.672-5.592c0.786-0.643,1.598-1.252,2.404-1.858c0.394-0.296,0.785-0.59,1.173-0.887l2.053-1.572
   l-1.069-2.354c-4.046-8.902-3.497-16.859,1.68-24.325C69.237,41.221,76.49,37.881,86.195,38.485z M58.741,44.951
   c-6.021,8.685-7.115,18.195-3.267,28.299c-0.581,0.441-1.169,0.896-1.751,1.373c-1.939,1.59-3.981,3.298-6.272,5.246l-0.394-0.314
   c-4.716-3.764-9.433-7.527-14.165-11.271c-5.257-4.16-10.223-8.09-14.34-12.995c-3.668-4.372-5.764-8.412-6.596-12.715
   c-1.732-8.956,1.928-17.132,9.327-20.83c2.534-1.266,5.25-1.908,8.071-1.908c4.796,0,9.467,1.89,13.152,5.323
    c0.665,0.619,1.349,1.217,2.039,1.82l3.333,2.946l2.16-2.352c6.932-7.55,14.165-9.563,22.599-6.291
    c5.52,2.142,8.555,6.555,9.828,10.671C72.41,32.373,64.435,36.74,58.741,44.951z M91.727,57.125h-6.813v-6.813
    c0-1.795-1.455-3.25-3.25-3.25s-3.25,1.455-3.25,3.25v6.813h-6.813c-1.795,0-3.25,1.455-3.25,3.25s1.455,3.25,3.25,3.25h6.813v6.813
    c0,1.795,1.455,3.25,3.25,3.25s3.25-1.455,3.25-3.25v-6.813h6.813c1.795,0,3.25-1.455,3.25-3.25S93.521,57.125,91.727,57.125z"
  fill="#EE1A59"/>
</svg>
