<svg xmlns="http://www.w3.org/2000/svg" xmlns:xlink="http://www.w3.org/1999/xlink" version="1.1" x="0px" y="0px" viewBox="0 0 100 125" enable-background="new 0 0 100 100" xml:space="preserve"><path d="M31.221,20.184c-1.218,0-1.897,0.58-1.897,1.633l4.989,55.158c0.073,0.502,0.306,0.881,0.752,1.029  c1.862,0.619,7.51,1.812,14.461,1.812c6.952,0,12.599-1.193,14.462-1.812c0.443-0.148,0.678-0.527,0.752-1.029l4.988-55.158  c0-1.053-0.68-1.633-1.897-1.633H31.221z M67.236,21.998c0.428,0,0.735,0.356,0.754,0.667L64.399,59.14  c-0.612,3.652-5.64,7.145-14.873,7.145s-14.261-3.492-14.873-7.145l-3.593-36.476c0.021-0.311,0.328-0.667,0.756-0.667H67.236z"/><text x="0" y="115" fill="#000000" font-size="5px" font-weight="bold" font-family="'Helvetica Neue', Helvetica, Arial-Unicode, Arial, Sans-serif">Created by Márcio Pinhole</text><text x="0" y="120" fill="#000000" font-size="5px" font-weight="bold" font-family="'Helvetica Neue', Helvetica, Arial-Unicode, Arial, Sans-serif">from the Noun Project</text></svg>