<svg xmlns="http://www.w3.org/2000/svg" xmlns:xlink="http://www.w3.org/1999/xlink" version="1.1" x="0px" y="0px" viewBox="0 0 100 125" enable-background="new 0 0 100 100" xml:space="preserve"><g><path d="M86.6,49.9c2.2-2.1,2.9-5.2,2-8.1c-0.9-2.9-3.4-5-6.4-5.4l-15.8-2.3c-1-0.1-1.8-0.7-2.2-1.6l-7.1-14.3   c-1.3-2.7-4.1-4.4-7.1-4.4s-5.8,1.7-7.1,4.4l-7.1,14.3c-0.4,0.9-1.3,1.5-2.2,1.6l-15.8,2.3c-3,0.4-5.5,2.5-6.4,5.4   c-0.9,2.9-0.2,6,2,8.1L24.9,61c0.7,0.7,1,1.6,0.8,2.6L23,79.3c-0.4,2.3,0.2,4.7,1.7,6.4c1.5,1.8,3.7,2.8,6.1,2.8   c1.3,0,2.5-0.3,3.7-0.9l14.1-7.4c0.8-0.4,1.9-0.4,2.7,0l14.1,7.4c1.2,0.6,2.4,0.9,3.7,0.9c2.3,0,4.6-1,6.1-2.8   c1.5-1.8,2.1-4.1,1.7-6.4l-2.7-15.7c-0.2-0.9,0.2-1.9,0.8-2.6L86.6,49.9z M69.4,64.5l2.7,15.7c0.2,1.1-0.2,1.9-0.6,2.4   c-0.9,1-2.4,1.4-3.6,0.7l-14.1-7.4c-1.1-0.6-2.4-0.9-3.7-0.9s-2.6,0.3-3.7,0.9l-14.1,7.4c-1.2,0.7-2.7,0.3-3.6-0.7   c-0.4-0.5-0.8-1.3-0.6-2.4l2.7-15.7c0.4-2.6-0.4-5.2-2.3-7L16.9,46.3c-0.8-0.8-1.1-1.9-0.7-3c0.4-1.1,1.2-1.8,2.4-2L34.3,39   c2.6-0.4,4.8-2,6-4.3l7.1-14.3c0.5-1,1.5-1.6,2.6-1.6s2.1,0.6,2.6,1.6l7.1,14.3c1.2,2.3,3.4,4,6,4.3l15.8,2.3c1.1,0.2,2,0.9,2.4,2   c0.4,1.1,0.1,2.2-0.7,3L71.6,57.4C69.8,59.3,68.9,61.9,69.4,64.5z"/><rect x="36.8" y="44.2" width="5" height="7"/><rect x="57.5" y="44.2" width="5" height="7"/><path d="M47.6,62.1h-5.3v-5.2c-0.5,0-0.8,0-0.8,0h-5c0,7.2,5.8,13,13,13s13-5.8,13-13c0,0-8.7,0-14.9,0V62.1z"/></g></svg>
